<svg xmlns="http://www.w3.org/2000/svg" viewBox="0 0 720 220" fill="none">
  <defs>
    <!-- Proton Mail icon gradients (from official asset) -->
    <linearGradient id="pm0" x1="13.509" y1="24.7672" x2="1.43523" y2="-17.1751" gradientUnits="userSpaceOnUse">
      <stop stop-color="#E3D9FF"/>
      <stop offset="1" stop-color="#7341FF"/>
    </linearGradient>
    <radialGradient id="pm1" cx="0" cy="0" r="1" gradientUnits="userSpaceOnUse" gradientTransform="translate(30.7227 11.8138) scale(35.9848 33.9185)">
      <stop offset="0.5561" stop-color="#6D4AFF"/>
      <stop offset="0.9944" stop-color="#AA8EFF"/>
    </radialGradient>
    <linearGradient id="pm2" x1="47.6423" y1="50.957" x2="19.8702" y2="-8.95322" gradientUnits="userSpaceOnUse">
      <stop offset="0.271" stop-color="#E3D9FF"/>
      <stop offset="1" stop-color="#7341FF"/>
    </linearGradient>

    <!-- MCP icon using Proton color palette -->
    <linearGradient id="mcpGrad" x1="0%" y1="0%" x2="100%" y2="100%">
      <stop offset="0%" stop-color="#6D4AFF"/>
      <stop offset="100%" stop-color="#AA8EFF"/>
    </linearGradient>

    <!-- Bridge connector gradient -->
    <linearGradient id="bridgeGrad" x1="0%" y1="0%" x2="100%" y2="0%">
      <stop offset="0%" stop-color="#6D4AFF"/>
      <stop offset="50%" stop-color="#7341FF"/>
      <stop offset="100%" stop-color="#AA8EFF"/>
    </linearGradient>

    <!-- Shadow filter -->
    <filter id="shadow" x="-5%" y="-5%" width="110%" height="115%">
      <feDropShadow dx="0" dy="2" stdDeviation="4" flood-color="#6D4AFF" flood-opacity="0.15"/>
    </filter>
  </defs>

  <!-- === Left: Official Proton Mail Icon (scaled to ~180px) === -->
  <g transform="translate(50, 15) scale(5)" filter="url(#shadow)">
    <path fill-rule="evenodd" clip-rule="evenodd"
          d="M22.8601 13.464L22.8621 13.4656L12.8571 24.5714L0 10.4194V4.31488C0 3.61388 0.817029 3.23035 1.35631 3.67821L15.6207 15.5242C17.0001 16.6697 18.9999 16.6697 20.3793 15.5242L22.8601 13.464Z"
          fill="url(#pm0)"/>
    <path d="M28.2857 8.95834L22.8601 13.4641L22.8621 13.4657L15.6784 19.8113C14.4546 20.8923 12.6255 20.9196 11.3701 19.8755L0 10.4195V28.5617C0 30.6185 1.66735 32.2858 3.72414 32.2858H28.2857L30.8571 20.6221L28.2857 8.95834Z"
          fill="url(#pm1)"/>
    <path fill-rule="evenodd" clip-rule="evenodd"
          d="M28.2857 8.96285V32.2857L32.2758 32.2857C34.3326 32.2857 36 30.6182 36 28.5616V4.3149C36 3.6139 35.1829 3.23031 34.6437 3.67825L28.2857 8.96285Z"
          fill="url(#pm2)"/>
  </g>

  <!-- === Center: Bridge Connector === -->
  <g transform="translate(280, 75)">
    <!-- Bridge arc -->
    <path d="M0 70 Q80 -10 160 70" fill="none" stroke="url(#bridgeGrad)" stroke-width="4" stroke-linecap="round"/>
    <!-- Bridge pillars -->
    <rect x="10" y="60" width="8" height="24" rx="3" fill="#7341FF"/>
    <rect x="142" y="60" width="8" height="24" rx="3" fill="#AA8EFF"/>
    <!-- Bridge road surface -->
    <rect x="0" y="68" width="160" height="6" rx="3" fill="url(#bridgeGrad)" opacity="0.25"/>
    <!-- Data flow dots -->
    <circle r="3.5" fill="#6D4AFF" opacity="0.8">
      <animate attributeName="cx" values="30;130" dur="2s" repeatCount="indefinite"/>
      <animate attributeName="cy" values="52;32;52" dur="2s" repeatCount="indefinite"/>
      <animate attributeName="opacity" values="0.9;0.5;0.9" dur="2s" repeatCount="indefinite"/>
    </circle>
    <circle r="3" fill="#7341FF" opacity="0.5">
      <animate attributeName="cx" values="130;30" dur="2.4s" repeatCount="indefinite"/>
      <animate attributeName="cy" values="35;55;35" dur="2.4s" repeatCount="indefinite"/>
      <animate attributeName="opacity" values="0.4;0.8;0.4" dur="2.4s" repeatCount="indefinite"/>
    </circle>
    <circle r="2.5" fill="#AA8EFF" opacity="0.6">
      <animate attributeName="cx" values="45;115" dur="1.7s" repeatCount="indefinite"/>
      <animate attributeName="cy" values="45;25;45" dur="1.7s" repeatCount="indefinite"/>
      <animate attributeName="opacity" values="0.6;0.3;0.6" dur="1.7s" repeatCount="indefinite"/>
    </circle>
  </g>

  <!-- === Right: MCP Protocol Icon (Proton color scheme, sized to match mail icon) === -->
  <g transform="translate(487, 25)" filter="url(#shadow)">
    <!-- Rounded square background -->
    <rect x="8" y="8" width="140" height="148" rx="22" fill="url(#mcpGrad)"/>
    <!-- Subtle inner highlight -->
    <rect x="15" y="15" width="126" height="134" rx="17" fill="none" stroke="white" stroke-width="1" opacity="0.12"/>
    <!-- Central hub -->
    <circle cx="78" cy="82" r="22" fill="white" opacity="0.95"/>
    <text x="78" y="89" text-anchor="middle" font-family="system-ui, -apple-system, 'Segoe UI', sans-serif" font-size="15" font-weight="700" fill="#6D4AFF">MCP</text>
    <!-- Cardinal connection lines -->
    <line x1="78" y1="60" x2="78" y2="30" stroke="white" stroke-width="2.5" opacity="0.6" stroke-linecap="round"/>
    <line x1="100" y1="82" x2="130" y2="82" stroke="white" stroke-width="2.5" opacity="0.6" stroke-linecap="round"/>
    <line x1="56" y1="82" x2="26" y2="82" stroke="white" stroke-width="2.5" opacity="0.6" stroke-linecap="round"/>
    <line x1="78" y1="104" x2="78" y2="134" stroke="white" stroke-width="2.5" opacity="0.6" stroke-linecap="round"/>
    <!-- Diagonal connection lines -->
    <line x1="93" y1="67" x2="118" y2="42" stroke="white" stroke-width="2" opacity="0.35" stroke-linecap="round"/>
    <line x1="63" y1="67" x2="38" y2="42" stroke="white" stroke-width="2" opacity="0.35" stroke-linecap="round"/>
    <line x1="93" y1="97" x2="118" y2="122" stroke="white" stroke-width="2" opacity="0.35" stroke-linecap="round"/>
    <line x1="63" y1="97" x2="38" y2="122" stroke="white" stroke-width="2" opacity="0.35" stroke-linecap="round"/>
    <!-- Cardinal endpoint dots -->
    <circle cx="78" cy="26" r="5" fill="white" opacity="0.85"/>
    <circle cx="134" cy="82" r="5" fill="white" opacity="0.85"/>
    <circle cx="22" cy="82" r="5" fill="white" opacity="0.85"/>
    <circle cx="78" cy="138" r="5" fill="white" opacity="0.85"/>
    <!-- Diagonal endpoint dots -->
    <circle cx="121" cy="39" r="4" fill="white" opacity="0.6"/>
    <circle cx="35" cy="39" r="4" fill="white" opacity="0.6"/>
    <circle cx="121" cy="125" r="4" fill="white" opacity="0.6"/>
    <circle cx="35" cy="125" r="4" fill="white" opacity="0.6"/>
  </g>
</svg>
